<?xml version="1.0" encoding="UTF-8"?>
<svg id="_3_dice" data-name="3 dice" xmlns="http://www.w3.org/2000/svg" viewBox="0 0 391.12 416.63">
  <defs>
    <style>
      .cls-1 {
        fill: #0d0d75;
      }

      .cls-1, .cls-2, .cls-3, .cls-4 {
        stroke: #f9f9ea;
        stroke-miterlimit: 10;
        stroke-width: 2.5px;
      }

      .cls-2 {
        fill: none;
      }

      .cls-3 {
        fill: #064c29;
      }

      .cls-4 {
        fill: #af1717;
      }
    </style>
  </defs>
  <g id="Dice_3" data-name="Dice 3">
    <polygon class="cls-3" points="185.17 245.01 282.82 183.22 385.16 236.9 389.84 352.36 292.19 414.15 189.85 360.47 185.17 245.01"/>
    <polygon class="cls-2" points="283.63 222.93 339.15 325.03 292.19 414.15 236.29 327.11 283.63 222.93"/>
    <polygon class="cls-2" points="389.84 352.36 339.15 325.03 236.29 327.11 189.85 360.47 236.29 327.11 185.17 245.01 283.63 222.93 282.82 183.22 283.63 222.93 385.16 236.9 339.15 325.03 389.84 352.36"/>
  </g>
  <g id="Dice_2" data-name="Dice 2">
    <polygon class="cls-1" points="2 256.4 26.88 143.55 137.05 108.68 222.34 186.65 197.45 299.5 87.28 334.37 2 256.4"/>
    <polygon class="cls-2" points="55.65 170.94 167.23 203.41 197.45 299.5 96.29 277.91 55.65 170.94"/>
    <polygon class="cls-2" points="222.34 186.65 167.23 203.41 96.29 277.91 87.28 334.37 96.29 277.91 2 256.4 55.65 170.94 26.88 143.55 55.65 170.94 137.05 108.68 167.23 203.41 222.34 186.65"/>
  </g>
  <g id="Dice_1" data-name="Dice 1">
    <polygon class="cls-4" points="193.17 201.49 143.96 96.93 209.91 2.04 325.06 11.7 374.27 116.26 308.32 211.15 193.17 201.49"/>
    <polygon class="cls-2" points="183.47 101.06 291.65 58.62 374.27 116.26 280.98 160.94 183.47 101.06"/>
    <polygon class="cls-2" points="325.06 11.7 291.65 58.62 280.98 160.94 308.32 211.15 280.98 160.94 193.17 201.49 183.47 101.06 143.96 96.93 183.47 101.06 209.91 2.04 291.65 58.62 325.06 11.7"/>
  </g>
</svg>