<?xml version="1.0" encoding="UTF-8"?>
<svg id="Pen_Paper" data-name="Pen &amp;amp; Paper" xmlns="http://www.w3.org/2000/svg" viewBox="0 0 407.77 452.53">
  <defs>
    <style>
      .cls-1 {
        fill: #ff000d;
        opacity: .4;
      }

      .cls-2 {
        fill: #ffffdb;
      }

      .cls-3, .cls-4 {
        font-family: AdornSGarland-Regular, 'AdornS Garland';
      }

      .cls-5 {
        fill: #edd7b7;
      }

      .cls-6 {
        fill: none;
        opacity: .15;
        stroke: #7725f9;
        stroke-miterlimit: 10;
      }

      .cls-4, .cls-7 {
        font-size: 21px;
      }

      .cls-8 {
        fill: #ffd939;
      }

      .cls-9, .cls-10 {
        fill: #3a3a3a;
      }

      .cls-10 {
        opacity: .1;
      }

      .cls-11 {
        font-family: MyriadPro-Regular, 'Myriad Pro';
      }
    </style>
  </defs>
  <g id="Paper">
    <path id="BG" class="cls-2" d="m172.6,0l-13.62,25.99,7.17,3.76c1.7-1.81,4.46-2.34,6.76-1.13,2.78,1.46,3.85,4.89,2.39,7.67s-4.89,3.85-7.67,2.39c-2.17-1.14-3.29-3.47-2.99-5.76l-7.29-3.82-8.92,17.02,7.17,3.76c1.7-1.81,4.46-2.34,6.76-1.13,2.78,1.46,3.85,4.89,2.39,7.67s-4.89,3.85-7.67,2.39c-2.17-1.14-3.29-3.47-2.99-5.76l-7.29-3.82-8.92,17.02,7.17,3.76c1.7-1.81,4.46-2.34,6.76-1.13,2.78,1.46,3.85,4.89,2.39,7.67s-4.89,3.85-7.67,2.39c-2.17-1.14-3.29-3.47-2.99-5.76l-7.29-3.82-8.92,17.02,7.17,3.76c1.7-1.81,4.46-2.34,6.76-1.13,2.78,1.46,3.85,4.89,2.39,7.67s-4.89,3.85-7.67,2.39c-2.17-1.14-3.29-3.47-2.99-5.76l-7.29-3.82-8.92,17.02,7.17,3.76c1.7-1.81,4.46-2.34,6.76-1.13,2.78,1.46,3.85,4.89,2.39,7.67s-4.89,3.85-7.67,2.39c-2.17-1.14-3.29-3.47-2.99-5.76l-7.29-3.82-8.92,17.02,7.17,3.76c1.7-1.81,4.46-2.34,6.76-1.13,2.78,1.46,3.85,4.89,2.39,7.67s-4.89,3.85-7.67,2.39c-2.17-1.14-3.29-3.47-2.99-5.76l-7.29-3.82-8.92,17.02,7.17,3.76c1.7-1.81,4.46-2.34,6.76-1.13,2.78,1.46,3.85,4.89,2.39,7.67s-4.89,3.85-7.67,2.39c-2.17-1.14-3.29-3.47-2.99-5.76l-7.29-3.82-8.92,17.02,7.17,3.76c1.7-1.81,4.46-2.34,6.76-1.13,2.78,1.46,3.85,4.89,2.39,7.67s-4.89,3.85-7.67,2.39c-2.17-1.14-3.29-3.47-2.99-5.76l-7.29-3.82-8.92,17.02,7.17,3.76c1.7-1.81,4.46-2.34,6.76-1.13,2.78,1.46,3.85,4.89,2.39,7.67s-4.89,3.85-7.67,2.39c-2.17-1.14-3.29-3.47-2.99-5.76l-7.29-3.82-8.92,17.02,7.17,3.76c1.7-1.81,4.46-2.34,6.76-1.13,2.78,1.46,3.85,4.89,2.39,7.67s-4.89,3.85-7.67,2.39c-2.17-1.14-3.29-3.47-2.99-5.76l-7.29-3.82-8.92,17.02,7.17,3.76c1.7-1.81,4.46-2.34,6.76-1.13,2.78,1.46,3.85,4.89,2.39,7.67s-4.89,3.85-7.67,2.39c-2.17-1.14-3.29-3.47-2.99-5.76l-7.29-3.82-8.92,17.02,7.17,3.76c1.7-1.81,4.46-2.34,6.76-1.13,2.78,1.46,3.85,4.89,2.39,7.67s-4.89,3.85-7.67,2.39c-2.17-1.14-3.29-3.47-2.99-5.76l-7.29-3.82-8.92,17.02,7.17,3.76c1.7-1.81,4.46-2.34,6.76-1.13,2.78,1.46,3.85,4.89,2.39,7.67s-4.89,3.85-7.67,2.39c-2.17-1.14-3.29-3.47-2.99-5.76l-7.29-3.82-8.92,17.02,7.17,3.76c1.7-1.81,4.46-2.34,6.76-1.13,2.78,1.46,3.85,4.89,2.39,7.67s-4.89,3.85-7.67,2.39c-2.17-1.14-3.29-3.47-2.99-5.76l-7.29-3.82-8.92,17.02,7.17,3.76c1.7-1.81,4.46-2.34,6.76-1.13,2.78,1.46,3.85,4.89,2.39,7.67s-4.89,3.85-7.67,2.39c-2.17-1.14-3.29-3.47-2.99-5.76l-7.29-3.82-9.65,18.4,235.18,123.28L407.77,123.28,172.6,0Z"/>
    <line id="Red_line" data-name="Red line" class="cls-1" x1="201.79" y1="15.3" x2="29.2" y2="344.55"/>
    <g id="Blue_lines" data-name="Blue lines">
      <line class="cls-6" x1="27.6" y1="318.04" x2="245.74" y2="432.39"/>
      <line class="cls-6" x1="38.15" y1="297.91" x2="256.29" y2="412.26"/>
      <line class="cls-6" x1="47.7" y1="277.5" x2="265.83" y2="391.85"/>
      <line class="cls-6" x1="58.85" y1="257.33" x2="276.98" y2="371.68"/>
      <line class="cls-6" x1="69.4" y1="237.2" x2="287.53" y2="351.55"/>
      <line class="cls-6" x1="78.94" y1="216.79" x2="297.08" y2="331.14"/>
      <line class="cls-6" x1="90.05" y1="196.72" x2="308.18" y2="311.07"/>
      <line class="cls-6" x1="100.6" y1="176.59" x2="318.73" y2="290.94"/>
      <line class="cls-6" x1="110.14" y1="156.18" x2="328.28" y2="270.53"/>
      <line class="cls-6" x1="123.41" y1="137.48" x2="341.54" y2="251.83"/>
      <line class="cls-6" x1="133.96" y1="117.35" x2="352.09" y2="231.7"/>
      <line class="cls-6" x1="143.5" y1="96.94" x2="361.64" y2="211.29"/>
      <line class="cls-6" x1="154.7" y1="76.67" x2="372.84" y2="191.02"/>
      <line class="cls-6" x1="165.25" y1="56.55" x2="383.39" y2="170.9"/>
      <line class="cls-6" x1="174.8" y1="36.14" x2="392.94" y2="150.49"/>
    </g>
    <text class="cls-7" transform="translate(196.61 67.35) rotate(27.66)"><tspan class="cls-3" x="0" y="0" xml:space="preserve">Dungeons  </tspan><tspan class="cls-11" x="146.01" y="0" xml:space="preserve">                  </tspan></text>
    <text class="cls-4" transform="translate(186.57 85.92) rotate(27.66)"><tspan x="0" y="0">Dragons</tspan></text>
    <text class="cls-4" transform="translate(175.43 106.59) rotate(27.66)"><tspan x="0" y="0">Adventure</tspan></text>
    <text class="cls-4" transform="translate(164.64 127.75) rotate(27.66)"><tspan x="0" y="0">Companionship</tspan></text>
    <text class="cls-4" transform="translate(154 147.43) rotate(27.66)"><tspan x="0" y="0">Awesom</tspan></text>
  </g>
  <g id="Pencil">
    <path class="cls-8" d="m258.76,223.54c-3.1,1.34-7.53,3.27-9.94,4.31-.74-1.7.89-4.04,3.63-5.23,2.74-1.19,5.57-.78,6.3.93Z"/>
    <rect class="cls-8" x="267.65" y="219.47" width="32.28" height="150.89" transform="translate(-93.88 137.2) rotate(-23.44)"/>
    <rect class="cls-10" x="278.41" y="219.47" width="10.76" height="150.89" transform="translate(-93.88 137.2) rotate(-23.44)"/>
    <path class="cls-5" d="m238.98,232.11l.07-39.31c0-.42.5-.64.81-.35l28.73,26.82-29.61,12.84Z"/>
    <path class="cls-9" d="m239.02,206.26l.02-13.45c0-.42.5-.64.81-.35l9.83,9.18-10.67,4.62Z"/>
    <path class="cls-8" d="m248.92,227.8c-3.1,1.34-7.53,3.27-9.94,4.31-.74-1.7.89-4.04,3.63-5.23s5.57-.78,6.3.93Z"/>
    <path class="cls-8" d="m268.66,219.25l-9.94,4.31c-.74-1.7.89-4.04,3.63-5.23,2.74-1.19,5.57-.78,6.3.93Z"/>
    <path class="cls-8" d="m258.72,223.55l-9.94,4.31c-.74-1.7.89-4.04,3.63-5.23s5.57-.78,6.3.93Z"/>
    <path class="cls-10" d="m258.72,223.55l-9.94,4.31c-.74-1.7.89-4.04,3.63-5.23s5.57-.78,6.3.93Z"/>
  </g>
</svg>